# xmcd CD database file
#
# Track frame offsets:
#	150
#	11373
#	25557
#	36554
#	51546
#	65046
#	74724
#	86623
#	100639
#	115057
#	128065
#	142980
#	156209
#	172539
#	190265
#	203021
#	217024
#	234389
#	248993
#	265109
#
# Disc length: 3778 seconds
#
# Revision: 1
# Processed by: cddbd v1.4PL0 Copyright (c) Steve Scherf et al.
# Submitted via: CDValet v3.40 - Copyright (c) 1996 - 1998 Greg Leichner
#
DISCID=160ec014
DTITLE=Moffatt, Katy - Katy and Kissin' In The California Sun
DYEAR=1900
DGENRE=
TTITLE0=Can't Help Lovin' That Man
TTITLE1=I Can't Sleep
TTITLE2=Ninety Miles An Hour (Down A Dead End Street)
TTITLE3=Easy Come, Easy Go
TTITLE4=Closer To My Melody
TTITLE5=You Done Me Wrong
TTITLE6=Another Magic Moment In Show Biz
TTITLE7=Last Night I Fell In Love With You Again
TTITLE8=I Can Almost See Houston From Here
TTITLE9=She Calls Me Baby
TTITLE10=Kissin' In The California Sun
TTITLE11=Um Um Um Um Um Um
TTITLE12=Didn't We Have Love
TTITLE13=Up On The Roof
TTITLE14=I'd Rather Leave While I'm In Love
TTITLE15=Walkin' After Midnight
TTITLE16=Kansas City Morning
TTITLE17=Saved By The Grace Of Your Love
TTITLE18=(Waitin' For) The Real Thing
TTITLE19=Take Me Back To Texas
EXTD=
EXTT0=
EXTT1=
EXTT2=
EXTT3=
EXTT4=
EXTT5=
EXTT6=
EXTT7=
EXTT8=
EXTT9=
EXTT10=
EXTT11=
EXTT12=
EXTT13=
EXTT14=
EXTT15=
EXTT16=
EXTT17=
EXTT18=
EXTT19=
PLAYORDER=
